<?xml version="1.0" encoding="UTF-8"?><svg id="Calque_1" xmlns="http://www.w3.org/2000/svg" viewBox="0 0 771.95 426.22"><g><path d="m44.63,54.85h-27.62s-6.26,17.19-6.26,17.19H-.18S24.56,6.46,24.56,6.46h12.72s24.74,65.58,24.74,65.58h-11.23s-6.16-17.19-6.16-17.19Zm-3.18-8.64l-7.55-21.06-2.98-9.44h-.3s-2.78,9.24-2.78,9.24l-7.75,21.26h21.36Z"/><path d="m116.48,22.36v49.68s-9.44,0-9.44,0l-.5-8.05c-3.38,6.26-9.54,9.04-17.59,9.04-9.94,0-17.89-5.07-17.89-17.98V22.36s10.63,0,10.63,0v29.91c0,9.24,3.97,12.02,10.23,12.02,7.55,0,13.91-4.57,13.91-15.1v-26.83s10.63,0,10.63,0Z"/><path d="m178.98,22.36v45.71c0,17.49-9.34,25.34-26.03,25.34-10.63,0-19.38-3.58-21.16-12.92l10.13-3.58c.99,5.66,4.87,8.45,12.42,8.45,8.15,0,13.91-5.86,13.91-14.8v-6.56c-3.18,4.57-8.84,7.65-16,7.65-13.51,0-22.06-9.34-22.06-25.14,0-15.8,8.55-25.14,22.06-25.14,8.05,0,13.91,3.68,16.79,9.24l.89-8.25h9.04Zm-10.73,24.64v-1.09c0-9.84-5.27-15.9-13.61-15.9-8.55,0-13.71,6.06-13.71,16.49,0,10.43,5.17,16.49,13.71,16.49,8.25,0,13.61-5.96,13.61-16Z"/><path d="m240.5,22.36v49.68s-9.44,0-9.44,0l-.5-8.05c-3.38,6.26-9.54,9.04-17.59,9.04-9.94,0-17.89-5.07-17.89-17.98V22.36s10.63,0,10.63,0v29.91c0,9.24,3.97,12.02,10.23,12.02,7.55,0,13.91-4.57,13.91-15.1v-26.83s10.63,0,10.63,0Z"/><path d="m288.1,22.36l-1.69,9.74c-1.39-.79-3.58-1.29-6.26-1.29-5.96,0-12.52,4.77-12.52,14.9v26.33s-10.63,0-10.63,0V22.36s9.04,0,9.04,0l.99,8.84c2.68-6.46,7.95-9.84,15.6-9.84,1.99,0,4.07.3,5.46.99Z"/><path d="m340.86,51.17h-36.37c1.19,8.74,6.36,13.41,14.41,13.41,6.56,0,10.93-2.38,12.52-6.76l8.84,3.68c-3.58,7.35-10.43,11.53-21.36,11.53-15.7,0-24.94-9.64-24.94-25.83,0-16.2,8.74-25.83,24.24-25.83,14.9,0,23.05,9.94,23.05,24.34,0,1.89-.2,4.17-.4,5.46Zm-36.27-8.15h26.73c-.99-8.35-5.66-13.22-13.12-13.22-7.85,0-12.52,4.67-13.61,13.22Z"/><path d="m350.41,62.6l7.15-6.16c2.58,5.96,8.45,8.25,15.4,8.25,7.05,0,10.63-2.58,10.63-5.96,0-3.08-2.88-4.87-11.53-6.56-14.81-2.78-19.97-7.05-19.97-15.4,0-8.05,7.55-15.4,20.87-15.4,11.03,0,17.29,3.58,20.87,11.23l-7.55,5.56c-2.48-5.96-6.76-8.45-13.22-8.45-6.16,0-10.33,2.98-10.33,6.06,0,3.58,2.88,5.46,12.22,7.15,14.21,2.58,19.28,6.86,19.28,15.1,0,8.74-7.95,15-21.66,15-9.64,0-17.98-3.18-22.16-10.43Z"/><path d="m487.73,62.89v9.14s-46.8,0-46.8,0V6.46s10.63,0,10.63,0v56.44s36.17,0,36.17,0Z"/><path d="m545.57,64.68l-.7,7.15c-1.59.7-3.68,1.19-6.16,1.19-5.36,0-9.04-1.99-10.13-7.45-3.08,4.77-9.44,7.45-16.79,7.45-9.34,0-16.2-4.37-16.2-13.02,0-7.65,6.36-13.31,19.38-15.6l12.62-2.29v-2.58c0-5.96-3.68-9.84-10.14-9.84-6.16,0-10.73,2.68-12.82,8.94l-8.25-4.37c2.39-7.85,10.04-12.92,20.87-12.92,12.42,0,20.97,5.66,20.97,17.59v22.46c0,2.48.99,3.68,3.68,3.68,1.29,0,2.58-.1,3.68-.4Zm-17.98-9.14v-5.96s-10.83,2.19-10.83,2.19c-6.76,1.29-10.14,3.58-10.14,7.55,0,3.68,2.78,5.66,7.45,5.66,6.66,0,13.52-3.48,13.52-9.44Z"/><path d="m604.29,47.3c0,16.2-8.44,25.73-21.96,25.73-7.95,0-14.01-4.07-16.89-10.13l-.5,9.14h-9.34s0-72.04,0-72.04h10.63s0,30.4,0,30.4c2.98-5.46,8.65-9.04,16-9.04,13.51,0,22.06,9.64,22.06,25.93Zm-10.63-.1c0-10.83-5.17-17.19-13.71-17.19-8.35,0-13.71,6.26-13.71,16.59v1.19c0,10.43,5.37,16.69,13.71,16.69,8.55,0,13.71-6.46,13.71-17.29Z"/></g><g><path d="m25.59,225.51c0,3.77,2.57,7.02,6.04,7.97.7.14,1.41.22,2.15.22h14.02c6.22,0,11.26-5.04,11.26-11.26v-5.78h22.52v5.78c0,18.26-14.49,33.09-32.59,33.72h-15.84v.03c-1.52-.03-3.01-.19-4.48-.41v-22.07h-9.39v19.2c-11.39-5.42-19.28-17-19.28-30.46v-60.23c0-13.46,7.89-25.04,19.28-30.46v19.19h9.39v-22.07c1.47-.22,2.96-.39,4.48-.41v.03h15.84c18.1.63,32.59,15.47,32.59,33.72v5.77h-22.52v-5.77c0-6.22-5.04-11.26-11.26-11.26h-14.02c-.73,0-1.45.08-2.15.22-3.47.95-6.04,4.2-6.04,7.97v66.39Z"/><path d="m180.03,155.55v100.5h-22.52v-26.41h-9.39v23.13c-4.82,2.68-10.35,4.43-16.26,4.43-18.66,0-33.78-15.53-33.78-34.19v-67.46h22.52v67.46c0,6.22,5.04,11.26,11.26,11.26s11.26-5.04,11.26-11.26v-17.88h14.4v-49.58h22.52Z"/><path d="m201.92,256.05V123.26h22.52v132.79h-22.52Z"/><path d="m305.61,233.2l6.42,22.33c-3.78,1.35-8.65,2.02-15.8,2.02-15.67,0-27.01-4.72-34.04-14.18-4.86-6.48-7.29-15.1-7.29-28.19v-25.21c0-6.22-5.12-11.26-11.33-11.26h-4.35v-22.52h15.68v-26.25h22.52v26.25h28.19v22.52l-28.19-.03v38.52c.03,5.58,1.17,9.66,3.31,12.2,2.84,3.24,7.3,4.87,13.37,4.87,4.18,0,8.54-.38,11.52-1.06h0Zm-30.71-77.01h-9.1v22.49h9.1v-22.49Z"/><path d="m407.34,155.55v100.5h-22.52v-26.41h-9.39v23.13c-4.82,2.68-10.35,4.43-16.26,4.43-18.66,0-33.78-15.53-33.78-34.19v-67.46h22.52v67.46c0,6.22,5.04,11.26,11.26,11.26s11.26-5.04,11.26-11.26v-17.88h14.4v-49.58h22.52Z"/><path d="m497.16,155.69v22.58h-12.93c-6.23,0-11.54,1.92-15.97,5.74-4.43,3.83-7.02,8.78-7.62,14.89v57.29h-22.52v-66.7c0-6.22-5.04-11.26-11.26-11.26v-.11h-4.47v-22.41h24.19v22.48h9.39v-14.1c7.72-5.56,16.94-8.4,27.71-8.4h13.47Zm47.95.02v22.58h-12.93c-6.21,0-11.54,1.92-15.96,5.74-4.43,3.83-7.02,8.78-7.62,14.89v57.27h-22.52v-68.54h20.45v-25.26c7.17-4.42,15.52-6.68,25.1-6.68h13.47Zm47.94,22.58h-12.93c-6.22,0-11.54,1.92-15.97,5.74-4.43,3.83-7.02,8.78-7.62,14.89v57.27h-22.52v-68.54h20.46v-25.26c7.17-4.42,15.52-6.68,25.1-6.68h13.47v22.58Zm47.94-22.58v22.58h-12.93c-6.22,0-11.54,1.92-15.97,5.74-4.43,3.83-7.02,8.78-7.62,14.89v57.27h-22.51v-68.54h20.45v-25.26c7.17-4.42,15.52-6.68,25.11-6.68h13.46Z"/><path d="m699.86,237.65c8.13,0,16.68-2.84,22.47-7.9l8.01,20.37s-15.62,7.05-31.55,7.05c-.6,0-1.12-.03-1.61-.07-12.43-.33-22.79-4.44-31.04-12.4-8.61-8.31-12.92-19.22-12.92-32.74v-56.44h22.52v22.41h9.39v-22.41h15.31c16.41,0,31.07,11.41,33.95,27.57,3.8,21.39-12.54,40.19-33.23,40.19l-16.03-.21v-22.52h-9.39v15.69c0,13.55,11.48,21.39,24.11,21.39h0Zm-13.62-40.71c0,2.01,1.63,3.65,3.65,3.65h4.93s6.32-.01,6.32-.01c6.57,0,11.84-5.64,11.21-12.34-.56-5.95-5.94-10.29-11.92-10.29h-10.55c-2.01,0-3.65,1.63-3.65,3.65v15.35Z"/></g><g><path d="m25.59,394.28c0,3.77,2.57,7.02,6.04,7.97.7.14,1.41.22,2.15.22h14.02c6.22,0,11.26-5.04,11.26-11.26v-5.77h22.52v5.77c0,18.26-14.49,33.09-32.59,33.72h-15.84v.03c-1.52-.03-3.01-.19-4.48-.41v-22.07h-9.39v19.2c-11.39-5.42-19.28-17-19.28-30.46v-60.23c0-13.46,7.89-25.04,19.28-30.46v19.19h9.39v-22.07c1.47-.23,2.96-.39,4.48-.41v.03h15.84c18.1.63,32.59,15.47,32.59,33.72v5.77h-22.52v-5.77c0-6.22-5.04-11.26-11.26-11.26h-14.02c-.73,0-1.45.08-2.15.22-3.47.95-6.04,4.2-6.04,7.97v66.39Z"/><path d="m98.77,319.7v-22.46h22.52v22.46h-22.52Zm0,105.12v-95.85h22.52v95.85h-22.52Z"/><path d="m210.66,324.67v22.58h-12.93c-6.22,0-11.54,1.91-15.97,5.74-4.43,3.83-7.02,8.79-7.62,14.89v57.31h-22.52v-66.72c0-6.22-5.04-11.26-11.26-11.26v-.12h-4.47v-22.41h24.19v22.49h9.39v-14.11c7.72-5.57,16.94-8.4,27.71-8.4h13.47Z"/><path d="m280.98,365.57v-8.87c-.01-6.16-4.97-11.15-11.14-11.15h-11.83c-4.52,0-8.19,3.66-8.19,8.19v41.83c0,4.52,3.66,8.15,8.19,8.15h5.97v-.03l5.86.03c6.17,0,11.14-5.01,11.14-11.18v-8.2h22.49v8.08c0,18.51-15.11,33.52-33.62,33.52h-16.6v-22.22h-9.44v15.44c-3.43-1.86-6.62-4.16-9.54-6.97-8.61-8.31-12.92-18.47-12.92-32v-14.06h.03s-.03,0-.03,0c0-13.51,4.3-24.42,12.92-32.74,2.91-2.81,6.11-5.11,9.54-6.97v19.13h9.49l-.05-22.41h16.71c18.5,0,33.5,15,33.52,33.49v8.94h-22.49Z"/><path d="m403.14,324.33v100.5h-22.52v-26.41h-9.39v23.13c-4.82,2.68-10.35,4.43-16.26,4.43-18.66,0-33.78-15.53-33.78-34.19v-67.46h22.52v67.46c0,6.22,5.04,11.26,11.26,11.26s11.26-5.04,11.26-11.26v-17.88h14.4v-49.58h22.52Z"/><path d="m425.03,424.82v-132.79h22.52v132.79h-22.52Z"/><path d="m533.07,335.58c8.61,8.31,12.91,19.22,12.91,32.74v56.49h-22.52v-22.22h-9.39l-.08,22.24h-15.31c-16.44,0-31.1-11.46-33.9-27.66-3.7-21.32,12.62-39.57,33.26-39.57h16.03v22.26h9.39v-16.67c0-1.05-.07-2.12-.29-3.15-2.39-10.57-11.77-17.42-23.82-17.42-7.89,0-16.14,2.69-21.91,7.46v-23.08c6-1.88,14.43-3.91,22.98-3.91.6,0,1.12.03,1.61.07,12.42.33,22.78,4.44,31.04,12.41h0Zm-20.12,47.95c0-2.01-1.63-3.65-3.65-3.65h-10.55c-5.97,0-11.36,4.34-11.92,10.29-.63,6.71,4.63,12.43,11.21,12.43h11.26c2.01.01,3.65-1.62,3.65-3.64v-15.44Z"/><path d="m565.66,319.7v-22.46h22.52v22.46h-22.52Zm0,105.12v-95.85h22.52v95.85h-22.52Z"/><path d="m677.54,324.67v22.58h-12.93c-6.22,0-11.54,1.91-15.97,5.74-4.43,3.83-7.02,8.79-7.62,14.89v57.31h-22.52v-66.72c0-6.22-5.04-11.26-11.26-11.26v-.12h-4.47v-22.41h24.19v22.49h9.39v-14.11c7.73-5.57,16.94-8.4,27.71-8.4h13.47Z"/><path d="m736.46,406.43c8.13,0,16.68-2.84,22.47-7.9l8.01,20.38s-15.62,7.04-31.55,7.04c-.6,0-1.12-.03-1.61-.07-12.43-.33-22.79-4.44-31.04-12.41-8.61-8.31-12.92-19.22-12.92-32.74v-56.44h22.52v22.41h9.39v-22.41h15.31c16.41,0,31.08,11.41,33.95,27.57,3.8,21.39-12.54,40.19-33.23,40.19l-16.04-.21v-22.52h-9.39v15.69c0,13.55,11.48,21.39,24.11,21.39h0Zm-13.61-40.71c0,2.01,1.63,3.65,3.65,3.65h4.93s6.32-.01,6.32-.01c6.58,0,11.84-5.64,11.21-12.35-.56-5.95-5.94-10.29-11.92-10.29h-10.55c-2.01,0-3.65,1.63-3.65,3.65v15.36Z"/></g></svg>