<svg width="1440" height="325" viewBox="0 0 1440 325" fill="none" xmlns="http://www.w3.org/2000/svg">
<g clip-path="url(#clip0_614_366)">
<path d="M1171 166C1196 190 1208 221 1208 259.5V421H1144V357.5H1117V421H1073C1026 421 984.5 388 976 342C965.5 281 1012.5 229 1071 229H1117V292.5H1144V245C1144 242 1143.5 239 1143 236C1136 206 1109.5 186 1075 186C1052.5 186 1029 194 1012.5 207.5V141.5C1029.5 136 1053.5 130.5 1078 130.5C1079.5 130.5 1081 130.5 1082.5 130.5C1118 131.5 1147.5 143.5 1171 166ZM1114 347V303C1114 297 1109 292.5 1103.5 292.5H1073C1056 292.5 1041 305 1039 322C1037.5 341 1052.5 357.5 1071 357.5H1103.5C1109 357.5 1114 353 1114 347Z" fill="black"/>
<path d="M1337.02 170.04C1394.26 170.04 1441.24 216.48 1441.24 273.72V375.78C1441.24 433.02 1394.26 480 1337.02 480H1296.52V410.34H1267.36V480H1198.24V70.68H1267.36V238.08H1296.52V170.04H1337.02ZM1372.66 376.32V272.64C1372.66 253.74 1357.54 238.08 1338.64 238.08H1322.98C1310.56 238.08 1300.3 248.34 1300.3 261.3V387.66C1300.3 400.62 1310.56 410.34 1322.98 410.34H1338.64C1357.54 410.34 1372.66 395.22 1372.66 376.32Z" fill="black"/>
<path d="M981.36 508H912.24V98.68H981.36V508Z" fill="black"/>
</g>
<defs>
<clipPath id="clip0_614_366">
<rect width="1440" height="325" fill="white"/>
</clipPath>
</defs>
</svg>
