<svg width="1440" height="762" viewBox="0 0 1440 762" fill="none" xmlns="http://www.w3.org/2000/svg">
<g clip-path="url(#clip0_547_41)">
<path d="M1097.2 204.6C1097.2 225.76 1079.72 243.24 1058.56 243.24H880.08V167.8H959.2C981.28 167.8 997.84 150.32 997.84 128.24V125.48H1097.2V204.6ZM1007.04 724.4C1049.36 724.4 1094.44 709.68 1124.8 683L1167.12 789.72C1167.12 789.72 1085.24 826.52 1001.52 826.52C997.84 826.52 995.08 826.52 993.24 826.52C927.92 824.68 872.72 803.52 829.48 761.2C784.4 717.96 762.32 660 762.32 589.16V292.92H880.08V410.68H929.76V292.92H1009.8C1096.28 292.92 1173.56 352.72 1188.28 437.36C1208.52 549.6 1122.04 648.96 1013.48 648.96L929.76 648.04V529.36H880.08V612.16C880.08 683 940.8 724.4 1007.04 724.4ZM935.28 430V510.04C935.28 521.08 943.56 529.36 954.6 529.36H980.36H1013.48C1048.44 529.36 1076.04 499.92 1072.36 464.96C1069.6 433.68 1041.08 410.68 1009.8 410.68H954.6C943.56 410.68 935.28 418.96 935.28 430Z" fill="black"/>
<path d="M1401.2 388.92H1519.88V883.88C1519.88 1001.64 1421.44 1097.32 1302.76 1090.88C1200.64 1085.36 1123.36 1010.84 1106.8 917H1224.56C1239.28 951.96 1265.96 975.88 1306.44 975.88C1359.8 975.88 1401.2 934.48 1401.2 881.12V734.84H1352.44V853.52H1288.96C1193.28 853.52 1110.48 779.92 1106.8 684.24V557.28C1110.48 461.6 1192.36 388.92 1288.04 388.92H1352.44V506.68H1401.2V388.92ZM1352.44 697.12V549C1352.44 530.6 1346 506.68 1323 506.68H1282.52C1253.08 507.6 1224.56 524.16 1224.56 553.6V681.48C1224.56 711.84 1253.08 733 1282.52 734.84H1323.92C1340.48 734.84 1352.44 715.52 1352.44 697.12Z" fill="black"/>
<path d="M803.64 457.76H873.56V576.44H806.4C773.28 576.44 745.68 586.56 721.76 606.8C698.76 626.12 684.96 652.8 682.2 685V985.84H563.52V635.32C563.52 602.2 537.76 576.44 504.64 576.44V575.52H481.64V457.76H608.6V575.52H657.36V501.92C697.84 472.48 746.6 457.76 803.64 457.76Z" fill="black"/>
</g>
<defs>
<clipPath id="clip0_547_41">
<rect width="1440" height="762" fill="white"/>
</clipPath>
</defs>
</svg>
